<svg xmlns="http://www.w3.org/2000/svg" viewBox="0 0 1200 675" width="1200" height="675"><defs><linearGradient id="bg" x1="0" y1="0" x2="1" y2="1"><stop offset="0" stop-color="#0f1a0c"/><stop offset="1" stop-color="#0a0f12"/></linearGradient><radialGradient id="g" cx="50%" cy="45%" r="60%"><stop offset="0" stop-color="#7CB342" stop-opacity=".30"/><stop offset="1" stop-color="#7CB342" stop-opacity="0"/></radialGradient><linearGradient id="a" x1="0" y1="0" x2="1" y2="1"><stop offset="0" stop-color="#7CB342"/><stop offset="1" stop-color="#1976D2"/></linearGradient><pattern id="d" width="26" height="26" patternUnits="userSpaceOnUse"><circle cx="1.5" cy="1.5" r="1.5" fill="#fff" opacity=".05"/></pattern><filter id="b" x="-60%" y="-60%" width="220%" height="220%"><feGaussianBlur stdDeviation="7"/></filter></defs><rect width="1200" height="675" fill="url(#bg)"/><rect width="1200" height="675" fill="url(#d)"/><rect width="1200" height="675" fill="url(#g)"/><g transform="translate(600 338)" fill="none" stroke="url(#a)" stroke-width="2.4"><polygon points="0,-92 80,-46 80,46 0,92 -80,46 -80,-46" opacity=".9"/><polygon points="0,-46 40,-23 40,23 0,46 -40,23 -40,-23" opacity=".55"/></g><circle cx="600" cy="338" r="11" fill="url(#a)" filter="url(#b)"/><circle cx="340" cy="218" r="7" fill="url(#a)"/><circle cx="860" cy="458" r="7" fill="url(#a)"/><circle cx="880" cy="248" r="7" fill="url(#a)"/><circle cx="320" cy="428" r="7" fill="url(#a)"/><g fill="#fff" opacity=".5"><circle cx="170" cy="120" r="2.5"/><circle cx="1040" cy="170" r="2.5"/><circle cx="980" cy="540" r="2.5"/></g></svg>
