<svg xmlns="http://www.w3.org/2000/svg" viewBox="0 0 1200 675" width="1200" height="675"><defs><linearGradient id="bg" x1="0" y1="0" x2="1" y2="1"><stop offset="0" stop-color="#0f1a0c"/><stop offset="1" stop-color="#0a0f12"/></linearGradient><radialGradient id="g" cx="50%" cy="45%" r="60%"><stop offset="0" stop-color="#7CB342" stop-opacity=".30"/><stop offset="1" stop-color="#7CB342" stop-opacity="0"/></radialGradient><linearGradient id="a" x1="0" y1="0" x2="1" y2="1"><stop offset="0" stop-color="#7CB342"/><stop offset="1" stop-color="#1976D2"/></linearGradient><pattern id="d" width="26" height="26" patternUnits="userSpaceOnUse"><circle cx="1.5" cy="1.5" r="1.5" fill="#fff" opacity=".05"/></pattern><filter id="b" x="-60%" y="-60%" width="220%" height="220%"><feGaussianBlur stdDeviation="7"/></filter></defs><rect width="1200" height="675" fill="url(#bg)"/><rect width="1200" height="675" fill="url(#d)"/><rect width="1200" height="675" fill="url(#g)"/><line x1="600" y1="338" x2="930" y2="338" stroke="url(#a)" stroke-width="1.6" opacity=".45"/><line x1="600" y1="338" x2="833" y2="479" stroke="url(#a)" stroke-width="1.6" opacity=".45"/><line x1="600" y1="338" x2="600" y2="538" stroke="url(#a)" stroke-width="1.6" opacity=".45"/><line x1="600" y1="338" x2="367" y2="479" stroke="url(#a)" stroke-width="1.6" opacity=".45"/><line x1="600" y1="338" x2="270" y2="338" stroke="url(#a)" stroke-width="1.6" opacity=".45"/><line x1="600" y1="338" x2="367" y2="197" stroke="url(#a)" stroke-width="1.6" opacity=".45"/><line x1="600" y1="338" x2="600" y2="138" stroke="url(#a)" stroke-width="1.6" opacity=".45"/><line x1="600" y1="338" x2="833" y2="197" stroke="url(#a)" stroke-width="1.6" opacity=".45"/><polygon points="930,338 833,479 600,538 367,479 270,338 367,197 600,138 833,197" fill="none" stroke="url(#a)" stroke-width="1.6" opacity=".4"/><circle cx="600" cy="338" r="44" fill="url(#a)" filter="url(#b)"/><circle cx="600" cy="338" r="28" fill="url(#a)"/><circle cx="930" cy="338" r="10" fill="url(#a)"/><circle cx="833" cy="479" r="10" fill="url(#a)"/><circle cx="600" cy="538" r="10" fill="url(#a)"/><circle cx="367" cy="479" r="10" fill="url(#a)"/><circle cx="270" cy="338" r="10" fill="url(#a)"/><circle cx="367" cy="197" r="10" fill="url(#a)"/><circle cx="600" cy="138" r="10" fill="url(#a)"/><circle cx="833" cy="197" r="10" fill="url(#a)"/><g fill="#fff" opacity=".5"><circle cx="170" cy="120" r="2.5"/><circle cx="1040" cy="170" r="2.5"/><circle cx="980" cy="540" r="2.5"/></g></svg>
