<svg xmlns="http://www.w3.org/2000/svg" viewBox="0 0 1200 675" width="1200" height="675"><defs><linearGradient id="bg" x1="0" y1="0" x2="1" y2="1"><stop offset="0" stop-color="#0f1a0c"/><stop offset="1" stop-color="#0a0f12"/></linearGradient><radialGradient id="g" cx="50%" cy="45%" r="60%"><stop offset="0" stop-color="#7CB342" stop-opacity=".30"/><stop offset="1" stop-color="#7CB342" stop-opacity="0"/></radialGradient><linearGradient id="a" x1="0" y1="0" x2="1" y2="1"><stop offset="0" stop-color="#7CB342"/><stop offset="1" stop-color="#1976D2"/></linearGradient><pattern id="d" width="26" height="26" patternUnits="userSpaceOnUse"><circle cx="1.5" cy="1.5" r="1.5" fill="#fff" opacity=".05"/></pattern><filter id="b" x="-60%" y="-60%" width="220%" height="220%"><feGaussianBlur stdDeviation="7"/></filter></defs><rect width="1200" height="675" fill="url(#bg)"/><rect width="1200" height="675" fill="url(#d)"/><rect width="1200" height="675" fill="url(#g)"/><circle cx="110" cy="150" r="3" fill="#7CB342" opacity=".75"/><circle cx="150" cy="150" r="4" fill="#7CB342" opacity=".75"/><circle cx="190" cy="150" r="3" fill="#7CB342" opacity=".75"/><circle cx="110" cy="270" r="4" fill="#7CB342" opacity=".75"/><circle cx="150" cy="270" r="3" fill="#7CB342" opacity=".75"/><circle cx="190" cy="270" r="4" fill="#7CB342" opacity=".75"/><circle cx="110" cy="390" r="3" fill="#7CB342" opacity=".75"/><circle cx="150" cy="390" r="4" fill="#7CB342" opacity=".75"/><circle cx="190" cy="390" r="3" fill="#7CB342" opacity=".75"/><path d="M180 200 C420 210 560 320 760 330" fill="none" stroke="url(#a)" stroke-width="2" opacity=".5"/><path d="M180 270 C420 270 560 320 760 330" fill="none" stroke="url(#a)" stroke-width="2" opacity=".5"/><path d="M180 340 C420 330 560 320 760 330" fill="none" stroke="url(#a)" stroke-width="2" opacity=".5"/><path d="M180 410 C420 390 560 320 760 330" fill="none" stroke="url(#a)" stroke-width="2" opacity=".5"/><g transform="translate(840 338)" fill="url(#a)"><circle r="42" filter="url(#b)"/><circle r="26"/></g><g fill="#fff" opacity=".5"><circle cx="170" cy="120" r="2.5"/><circle cx="1040" cy="170" r="2.5"/><circle cx="980" cy="540" r="2.5"/></g></svg>
