<svg xmlns="http://www.w3.org/2000/svg" viewBox="0 0 1200 675" width="1200" height="675"><defs><linearGradient id="bg" x1="0" y1="0" x2="1" y2="1"><stop offset="0" stop-color="#0f1a0c"/><stop offset="1" stop-color="#0a0f12"/></linearGradient><radialGradient id="g" cx="50%" cy="45%" r="60%"><stop offset="0" stop-color="#7CB342" stop-opacity=".30"/><stop offset="1" stop-color="#7CB342" stop-opacity="0"/></radialGradient><linearGradient id="a" x1="0" y1="0" x2="1" y2="1"><stop offset="0" stop-color="#7CB342"/><stop offset="1" stop-color="#1976D2"/></linearGradient><pattern id="d" width="26" height="26" patternUnits="userSpaceOnUse"><circle cx="1.5" cy="1.5" r="1.5" fill="#fff" opacity=".05"/></pattern><filter id="b" x="-60%" y="-60%" width="220%" height="220%"><feGaussianBlur stdDeviation="7"/></filter></defs><rect width="1200" height="675" fill="url(#bg)"/><rect width="1200" height="675" fill="url(#d)"/><rect width="1200" height="675" fill="url(#g)"/><path d="M120 250 Q210 190 300 250 T480 250 T660 250 T840 250 T1020 250" fill="none" stroke="url(#a)" stroke-width="2.4" opacity=".65"/><path d="M120 337 Q210 277 300 337 T480 337 T660 337 T840 337 T1020 337" fill="none" stroke="url(#a)" stroke-width="3.0" opacity=".65"/><path d="M120 424 Q210 364 300 424 T480 424 T660 424 T840 424 T1020 424" fill="none" stroke="url(#a)" stroke-width="2.4" opacity=".65"/><circle cx="300" cy="337" r="6" fill="url(#a)"/><circle cx="480" cy="337" r="6" fill="url(#a)"/><circle cx="660" cy="337" r="6" fill="url(#a)"/><circle cx="840" cy="337" r="6" fill="url(#a)"/><g fill="#fff" opacity=".5"><circle cx="170" cy="120" r="2.5"/><circle cx="1040" cy="170" r="2.5"/><circle cx="980" cy="540" r="2.5"/></g></svg>
